<svg width="20" height="20" viewBox="0 0 20 20" fill="none" xmlns="http://www.w3.org/2000/svg">
<g id="Group 2">
<path id="Vector" d="M10 20C15.5228 20 20 15.5228 20 10C20 4.47715 15.5228 0 10 0C4.47715 0 0 4.47715 0 10C0 15.5228 4.47715 20 10 20Z" fill="#1D1E1F"/>
<g id="Group">
<g id="Group_2">
<path id="Vector_2" d="M7.10874 8.29431H4.89502V15.1126H7.10874V8.29431Z" fill="white"/>
<path id="Vector_3" d="M6.00218 4.88733C5.28863 4.88733 4.82181 5.39885 4.83729 6.08059C4.82267 6.73224 5.28863 7.25837 5.98842 7.25837C6.68822 7.25837 7.18254 6.73138 7.18254 6.08059C7.16793 5.39885 6.71659 4.88733 6.00218 4.88733Z" fill="white"/>
</g>
<path id="Vector_4" d="M12.6144 8.13453C11.6498 8.13453 10.9878 8.59189 10.619 9.00541V8.29444H8.40527V15.1127H10.619V11.3094C10.619 11.1056 10.6482 10.8873 10.7067 10.7557C10.852 10.3474 11.2165 9.92528 11.8286 9.92528C12.6298 9.92528 12.9496 10.552 12.9496 11.4693V15.1118H15.1634V11.1916C15.1634 9.09481 14.0715 8.13281 12.6144 8.13281V8.13453Z" fill="white"/>
</g>
</g>
</svg>
