<svg width="689" height="234" viewBox="0 0 689 234" fill="none" xmlns="http://www.w3.org/2000/svg">
<path fill-rule="evenodd" clip-rule="evenodd" d="M0 61.0813V232.574C4.30761 232.574 5.24405 231.825 9.86381 231.825H28.0931C28.1556 228.079 28.8423 226.831 28.8423 218.153V114.958C28.8423 100.661 27.344 68.7601 29.7787 57.4604C32.7753 43.726 46.1976 29.9916 61.4927 29.9916C74.041 29.9916 81.2828 31.1778 90.5223 40.4173C104.194 54.0268 103.757 74.2539 92.3328 88.9248C90.772 90.9225 91.0842 89.3618 90.335 92.2335C95.9537 92.2335 102.009 91.7341 107.503 92.5456L122.985 95.2925C123.61 92.6705 124.421 91.9214 125.483 89.4242C137.656 61.331 125.42 23.3741 92.3952 6.7055C74.1659 -2.47159 47.134 -0.973286 29.529 10.8883C13.1726 21.8134 0.0624292 40.6046 0.0624292 61.1438L0 61.0813Z" fill="#00B6FF"/>
<path fill-rule="evenodd" clip-rule="evenodd" d="M35.7114 127.072H100.95C133.663 127.072 151.58 169.399 127.732 193.309C113.373 207.731 100.638 205.233 80.4731 205.233C75.8533 205.233 73.2313 204.796 69.7977 204.547C64.0542 204.172 63.6796 205.608 63.7421 199.24L64.1166 135.812C64.1166 135.687 65.2404 133.939 60.8079 133.939H38.0212C36.2732 133.939 35.7738 134.439 35.7738 136.187V233.326H97.2041C115.683 233.326 128.856 228.769 142.091 218.281L145.774 215.16C158.884 204.172 167 182.821 167 165.091C167 144.989 154.826 122.14 138.657 111.527C127.982 104.473 115.496 99.1038 101.012 99.1038H35.7738V127.197L35.7114 127.072Z" fill="#003399"/>
<path d="M236.854 166.38C236.854 168.43 236.717 170.275 236.444 171.915H194.936C195.277 176.014 196.712 179.226 199.24 181.549C201.768 183.872 204.877 185.034 208.567 185.034C213.896 185.034 217.688 182.745 219.943 178.167H235.419C233.779 183.633 230.636 188.142 225.99 191.695C221.344 195.18 215.639 196.922 208.874 196.922C203.408 196.922 198.489 195.727 194.116 193.335C189.811 190.876 186.429 187.425 183.969 182.984C181.578 178.543 180.382 173.418 180.382 167.61C180.382 161.734 181.578 156.576 183.969 152.134C186.361 147.693 189.709 144.277 194.013 141.885C198.318 139.494 203.272 138.298 208.874 138.298C214.272 138.298 219.089 139.46 223.325 141.783C227.63 144.106 230.944 147.42 233.267 151.724C235.658 155.961 236.854 160.846 236.854 166.38ZM221.993 162.281C221.925 158.591 220.592 155.653 217.996 153.467C215.4 151.212 212.222 150.085 208.464 150.085C204.911 150.085 201.905 151.178 199.445 153.364C197.054 155.482 195.585 158.455 195.038 162.281H221.993ZM271.002 182.779L285.351 139.221H300.622L279.612 196H262.188L241.28 139.221H256.654L271.002 182.779ZM361.463 166.38C361.463 168.43 361.327 170.275 361.053 171.915H319.545C319.887 176.014 321.321 179.226 323.849 181.549C326.378 183.872 329.486 185.034 333.176 185.034C338.506 185.034 342.298 182.745 344.552 178.167H360.028C358.389 183.633 355.246 188.142 350.599 191.695C345.953 195.18 340.248 196.922 333.484 196.922C328.017 196.922 323.098 195.727 318.725 193.335C314.42 190.876 311.038 187.425 308.578 182.984C306.187 178.543 304.991 173.418 304.991 167.61C304.991 161.734 306.187 156.576 308.578 152.134C310.97 147.693 314.318 144.277 318.622 141.885C322.927 139.494 327.881 138.298 333.484 138.298C338.881 138.298 343.698 139.46 347.935 141.783C352.239 144.106 355.553 147.42 357.876 151.724C360.268 155.961 361.463 160.846 361.463 166.38ZM346.602 162.281C346.534 158.591 345.202 155.653 342.605 153.467C340.009 151.212 336.832 150.085 333.074 150.085C329.521 150.085 326.514 151.178 324.054 153.364C321.663 155.482 320.194 158.455 319.647 162.281H346.602ZM386.285 120.158V196H371.936V120.158H386.285ZM425.674 196.922C420.208 196.922 415.288 195.727 410.915 193.335C406.542 190.876 403.092 187.425 400.564 182.984C398.104 178.543 396.874 173.418 396.874 167.61C396.874 161.803 398.138 156.678 400.666 152.237C403.263 147.796 406.782 144.379 411.223 141.988C415.664 139.528 420.618 138.298 426.084 138.298C431.55 138.298 436.504 139.528 440.945 141.988C445.386 144.379 448.871 147.796 451.399 152.237C453.995 156.678 455.293 161.803 455.293 167.61C455.293 173.418 453.961 178.543 451.296 182.984C448.7 187.425 445.147 190.876 440.637 193.335C436.196 195.727 431.208 196.922 425.674 196.922ZM425.674 184.419C428.27 184.419 430.696 183.804 432.951 182.574C435.274 181.276 437.119 179.362 438.485 176.834C439.852 174.306 440.535 171.232 440.535 167.61C440.535 162.213 439.1 158.079 436.23 155.209C433.429 152.271 429.978 150.802 425.879 150.802C421.779 150.802 418.329 152.271 415.527 155.209C412.794 158.079 411.428 162.213 411.428 167.61C411.428 173.008 412.76 177.176 415.425 180.114C418.158 182.984 421.574 184.419 425.674 184.419ZM480.167 147.42C482.012 144.823 484.54 142.671 487.751 140.963C491.031 139.186 494.755 138.298 498.923 138.298C503.774 138.298 508.147 139.494 512.042 141.885C516.004 144.277 519.113 147.693 521.368 152.134C523.691 156.507 524.853 161.598 524.853 167.405C524.853 173.213 523.691 178.372 521.368 182.881C519.113 187.323 516.004 190.773 512.042 193.233C508.147 195.693 503.774 196.922 498.923 196.922C494.755 196.922 491.065 196.068 487.854 194.36C484.711 192.652 482.149 190.5 480.167 187.903V223.057H465.819V139.221H480.167V147.42ZM510.197 167.405C510.197 163.989 509.479 161.051 508.044 158.591C506.678 156.063 504.833 154.15 502.51 152.852C500.255 151.554 497.795 150.904 495.131 150.904C492.534 150.904 490.075 151.588 487.751 152.954C485.497 154.252 483.652 156.166 482.217 158.694C480.85 161.222 480.167 164.194 480.167 167.61C480.167 171.027 480.85 173.999 482.217 176.527C483.652 179.055 485.497 181.002 487.751 182.369C490.075 183.667 492.534 184.316 495.131 184.316C497.795 184.316 500.255 183.633 502.51 182.266C504.833 180.9 506.678 178.953 508.044 176.424C509.479 173.896 510.197 170.89 510.197 167.405ZM588.062 166.38C588.062 168.43 587.925 170.275 587.652 171.915H546.143C546.485 176.014 547.92 179.226 550.448 181.549C552.976 183.872 556.085 185.034 559.775 185.034C565.104 185.034 568.896 182.745 571.151 178.167H586.627C584.987 183.633 581.844 188.142 577.198 191.695C572.552 195.18 566.846 196.922 560.082 196.922C554.616 196.922 549.696 195.727 545.324 193.335C541.019 190.876 537.637 187.425 535.177 182.984C532.786 178.543 531.59 173.418 531.59 167.61C531.59 161.734 532.786 156.576 535.177 152.134C537.568 147.693 540.916 144.277 545.221 141.885C549.526 139.494 554.479 138.298 560.082 138.298C565.48 138.298 570.297 139.46 574.533 141.783C578.838 144.106 582.152 147.42 584.475 151.724C586.866 155.961 588.062 160.846 588.062 166.38ZM573.201 162.281C573.132 158.591 571.8 155.653 569.204 153.467C566.607 151.212 563.43 150.085 559.672 150.085C556.119 150.085 553.113 151.178 550.653 153.364C548.262 155.482 546.793 158.455 546.246 162.281H573.201ZM612.884 148.035C614.728 145.028 617.12 142.671 620.058 140.963C623.064 139.255 626.48 138.401 630.307 138.401V153.467H626.515C622.005 153.467 618.589 154.526 616.266 156.644C614.011 158.762 612.884 162.452 612.884 167.713V196H598.535V139.221H612.884V148.035ZM661.699 196.922C657.053 196.922 652.885 196.102 649.195 194.463C645.506 192.754 642.568 190.466 640.381 187.596C638.263 184.726 637.102 181.549 636.897 178.064H651.348C651.621 180.251 652.68 182.061 654.525 183.496C656.438 184.931 658.795 185.649 661.597 185.649C664.33 185.649 666.448 185.102 667.951 184.009C669.522 182.915 670.308 181.515 670.308 179.807C670.308 177.962 669.352 176.595 667.439 175.707C665.594 174.75 662.621 173.726 658.522 172.632C654.286 171.607 650.801 170.548 648.068 169.455C645.403 168.362 643.08 166.688 641.099 164.433C639.185 162.178 638.229 159.138 638.229 155.312C638.229 152.169 639.117 149.299 640.894 146.702C642.738 144.106 645.335 142.056 648.683 140.553C652.099 139.05 656.096 138.298 660.674 138.298C667.439 138.298 672.836 140.006 676.868 143.423C680.899 146.771 683.119 151.314 683.529 157.054H669.796C669.591 154.799 668.634 153.023 666.926 151.724C665.286 150.358 663.066 149.675 660.264 149.675C657.668 149.675 655.652 150.153 654.217 151.109C652.851 152.066 652.168 153.398 652.168 155.107C652.168 157.02 653.124 158.489 655.037 159.514C656.95 160.47 659.923 161.461 663.954 162.486C668.053 163.511 671.436 164.57 674.1 165.663C676.765 166.756 679.054 168.464 680.967 170.788C682.949 173.042 683.974 176.049 684.042 179.807C684.042 183.086 683.119 186.024 681.275 188.621C679.498 191.217 676.902 193.267 673.485 194.77C670.137 196.205 666.209 196.922 661.699 196.922Z" fill="#003399"/>
<path d="M166.42 62.0348C168.265 59.0284 170.657 56.6711 173.595 54.963C176.601 53.2548 180.017 52.4007 183.844 52.4007V67.4667H180.052C175.542 67.4667 172.126 68.5258 169.803 70.6439C167.548 72.762 166.42 76.4517 166.42 81.7128V110H152.072V53.2206H166.42V62.0348ZM189.818 81.4053C189.818 75.6659 190.946 70.5756 193.201 66.1344C195.524 61.6931 198.633 58.2768 202.527 55.8854C206.49 53.494 210.897 52.2982 215.748 52.2982C219.985 52.2982 223.674 53.1523 226.817 54.8605C230.029 56.5686 232.591 58.7209 234.504 61.3173V53.2206H248.955V110H234.504V101.698C232.659 104.363 230.097 106.584 226.817 108.36C223.606 110.068 219.882 110.922 215.646 110.922C210.863 110.922 206.49 109.693 202.527 107.233C198.633 104.773 195.524 101.323 193.201 96.8813C190.946 92.3718 189.818 87.2131 189.818 81.4053ZM234.504 81.6103C234.504 78.1257 233.821 75.1535 232.454 72.6937C231.088 70.1656 229.243 68.2525 226.92 66.9543C224.597 65.5878 222.103 64.9045 219.438 64.9045C216.773 64.9045 214.314 65.5536 212.059 66.8518C209.804 68.15 207.959 70.0631 206.524 72.5912C205.158 75.051 204.475 77.989 204.475 81.4053C204.475 84.8217 205.158 87.828 206.524 90.4244C207.959 92.9525 209.804 94.8998 212.059 96.2664C214.382 97.6329 216.842 98.3162 219.438 98.3162C222.103 98.3162 224.597 97.6671 226.92 96.3689C229.243 95.0023 231.088 93.0892 232.454 90.6294C233.821 88.1013 234.504 85.095 234.504 81.6103ZM294.433 52.4007C301.198 52.4007 306.664 54.553 310.832 58.8576C315 63.0938 317.084 69.0382 317.084 76.6908V110H302.735V78.6381C302.735 74.1286 301.608 70.6781 299.353 68.2867C297.098 65.8269 294.023 64.597 290.129 64.597C286.166 64.597 283.023 65.8269 280.7 68.2867C278.445 70.6781 277.318 74.1286 277.318 78.6381V110H262.969V53.2206H277.318V60.2924C279.231 57.8327 281.656 55.9195 284.594 54.553C287.601 53.1182 290.88 52.4007 294.433 52.4007ZM327.039 81.4053C327.039 75.6659 328.166 70.5756 330.421 66.1344C332.744 61.6931 335.887 58.2768 339.85 55.8854C343.813 53.494 348.22 52.2982 353.071 52.2982C356.761 52.2982 360.28 53.1182 363.628 54.758C366.976 56.3295 369.64 58.4476 371.622 61.1124V34.1575H386.175V110H371.622V101.596C369.845 104.397 367.351 106.652 364.14 108.36C360.929 110.068 357.205 110.922 352.969 110.922C348.186 110.922 343.813 109.693 339.85 107.233C335.887 104.773 332.744 101.323 330.421 96.8813C328.166 92.3718 327.039 87.2131 327.039 81.4053ZM371.724 81.6103C371.724 78.1257 371.041 75.1535 369.674 72.6937C368.308 70.1656 366.463 68.2525 364.14 66.9543C361.817 65.5878 359.323 64.9045 356.658 64.9045C353.994 64.9045 351.534 65.5536 349.279 66.8518C347.024 68.15 345.179 70.0631 343.745 72.5912C342.378 75.051 341.695 77.989 341.695 81.4053C341.695 84.8217 342.378 87.828 343.745 90.4244C345.179 92.9525 347.024 94.8998 349.279 96.2664C351.602 97.6329 354.062 98.3162 356.658 98.3162C359.323 98.3162 361.817 97.6671 364.14 96.3689C366.463 95.0023 368.308 93.0892 369.674 90.6294C371.041 88.1013 371.724 85.095 371.724 81.6103Z" fill="#00B6FF"/>
</svg>
