<svg width="24" height="24" viewBox="0 0 24 24" fill="none" xmlns="http://www.w3.org/2000/svg">
<path d="M21.9991 12.0311C21.9991 6.44135 17.5227 1.90967 12 1.90967C6.4773 1.90967 2 6.44135 2 12.0311C2 17.0849 5.66059 21.2737 10.4448 22.0299V14.9548H7.88893V12.0303H10.4448V9.80009C10.4457 7.26363 11.9304 5.85749 14.2146 5.85749C15.309 5.85749 16.4446 6.0698 16.4446 6.0698V8.54361H15.1921C13.9507 8.54361 13.5535 9.33108 13.5535 10.1316L13.5561 12.0303H16.3337L15.8893 14.9548H13.5561V22.0299C18.3394 21.2737 22 17.0849 22 12.0311" fill="#1D1E1F"/>
</svg>
