<svg width="380" height="380" viewBox="0 0 380 380" fill="none" xmlns="http://www.w3.org/2000/svg">
<path d="M190 348.333C277.445 348.333 348.333 277.445 348.333 190C348.333 102.555 277.445 31.6665 190 31.6665C102.555 31.6665 31.6665 102.555 31.6665 190C31.6665 277.445 102.555 348.333 190 348.333Z" fill="#161616"/>
<path d="M280.942 144.007C278.764 135.785 272.325 129.306 264.158 127.114C249.348 123.126 189.987 123.126 189.987 123.126C189.987 123.126 130.626 123.126 115.829 127.114C107.662 129.306 101.238 135.785 99.046 144.007C95.085 158.898 95.085 189.987 95.085 189.987C95.085 189.987 95.085 221.077 99.046 235.982C101.224 244.204 107.662 250.669 115.829 252.874C130.639 256.863 189.987 256.863 189.987 256.863C189.987 256.863 249.348 256.863 264.158 252.874C272.325 250.669 278.75 244.204 280.942 235.982C284.903 221.077 284.903 189.987 284.903 189.987C284.903 189.987 284.903 158.898 280.942 144.007Z" fill="white"/>
<path d="M170.58 218.215L220.195 189.997L170.58 161.766V218.215Z" fill="#161616"/>
</svg>
